<?xml version="1.0" standalone="no"?>
<!DOCTYPE svg PUBLIC "-//W3C//DTD SVG 20010904//EN"
 "http://www.w3.org/TR/2001/REC-SVG-20010904/DTD/svg10.dtd">
<svg version="1.0" xmlns="http://www.w3.org/2000/svg"
 width="3000.000000pt" height="2000.000000pt" viewBox="0 0 3000.000000 2000.000000"
 preserveAspectRatio="xMidYMid meet">

<g transform="translate(0.000000,2000.000000) scale(0.100000,-0.100000)"
fill="#000000" stroke="none">
<path d="M0 10000 l0 -10000 15000 0 15000 0 0 10000 0 10000 -15000 0 -15000
0 0 -10000z m22405 1450 c-3 -5 0 -10 7 -10 8 0 156 -334 363 -818 352 -824
407 -953 865 -2032 138 -327 267 -630 285 -672 22 -50 28 -75 19 -71 -8 3 -14
-1 -14 -8 0 -11 -2 -11 -8 -2 -11 18 -344 23 -337 5 3 -8 0 -10 -6 -6 -6 4
-24 35 -40 70 -45 98 -522 1233 -906 2154 -118 283 -217 518 -220 524 -8 13
-13 2 -188 -414 -171 -407 -638 -1510 -847 -2000 -71 -168 -135 -309 -142
-315 -20 -16 -376 -8 -376 9 0 17 1116 2626 1450 3391 29 66 61 139 71 163 10
23 21 42 24 42 4 0 3 -4 0 -10z m-10535 -1310 c0 -1245 -4 -1383 -45 -1547
-88 -346 -370 -622 -771 -752 -98 -32 -196 -53 -189 -41 3 5 -2 10 -10 14 -8
3 -15 1 -15 -5 0 -6 -5 -7 -10 -4 -6 4 -17 1 -25 -5 -8 -7 -15 -9 -15 -4 0 15
-52 13 -67 -2 -16 -16 -47 -19 -38 -4 4 6 10 8 15 5 5 -3 11 -1 15 5 4 6 -13
9 -47 6 -29 -1 -65 0 -80 5 -15 4 -30 4 -32 0 -6 -9 -93 -7 -102 2 -8 8 -35
-3 -29 -13 3 -4 -2 -10 -10 -14 -8 -3 -17 0 -21 6 -5 7 -2 8 6 3 8 -5 11 -4 6
3 -3 5 -26 9 -51 7 -25 -1 -45 1 -45 6 0 6 -10 4 -22 -3 -13 -7 -27 -11 -33
-9 -5 2 -26 5 -46 7 -117 12 -394 134 -525 232 -85 63 -192 171 -243 246 -53
76 -110 205 -135 307 -45 175 -47 268 -44 1517 l3 1173 175 0 175 0 5 -1233
c5 -1133 7 -1240 24 -1318 61 -290 294 -521 621 -615 528 -152 1107 121 1212
570 14 61 17 194 23 1040 4 534 8 1102 9 1263 l1 292 169 0 c141 0 170 2 175
15 3 8 8 15 10 15 3 0 6 -526 6 -1170z m1224 1140 c15 0 16 -122 16 -1580 l0
-1580 790 0 790 0 0 -135 c0 -130 -1 -135 -21 -135 -13 0 -18 -4 -13 -12 6
-10 4 -10 -7 0 -18 17 -1864 18 -1853 0 5 -7 3 -8 -7 -2 -8 5 -18 9 -24 9 -17
0 -26 1032 -20 2268 4 983 7 1161 19 1173 17 16 30 19 21 4 -4 -6 44 -10 135
-10 131 0 142 1 136 18 -6 16 -5 16 8 0 7 -10 21 -18 30 -18z m-6211 1 c66 0
86 3 80 12 -4 7 -1 7 10 -2 11 -9 17 -10 17 -2 0 6 5 11 11 11 5 0 8 -4 4 -9
-3 -6 22 -9 59 -9 36 1 71 -4 79 -10 8 -7 16 -9 19 -6 9 8 160 -30 263 -66
407 -144 749 -447 930 -826 114 -237 163 -448 172 -729 8 -271 -13 -434 -87
-655 -163 -492 -517 -866 -1003 -1059 -75 -30 -250 -79 -277 -79 -8 0 -19 -1
-25 -2 -5 -1 -256 -2 -557 -1 l-548 1 0 134 0 134 473 5 c517 5 554 9 735 69
121 40 243 102 344 175 102 74 270 247 337 349 186 281 270 622 241 980 -31
386 -158 683 -395 919 -189 189 -404 302 -694 366 -88 20 -134 22 -568 26
l-473 5 0 134 0 134 375 0 c293 0 375 3 375 13 0 9 2 9 8 0 5 -7 39 -12 95
-12z m10804 -1 l163 0 0 -1210 c0 -1253 -2 -1333 -42 -1485 -72 -278 -277
-516 -568 -661 -107 -53 -237 -99 -308 -110 -26 -3 -53 -12 -61 -18 -11 -8
-13 -8 -7 2 4 6 2 12 -3 12 -6 0 -11 -5 -11 -11 0 -6 -7 -3 -16 6 -9 9 -19 13
-22 10 -4 -3 0 -10 8 -15 11 -7 10 -9 -7 -7 -12 0 -20 4 -17 8 9 15 -71 4 -83
-11 -10 -13 -11 -13 -10 4 2 14 -5 19 -25 20 -14 1 -24 -3 -21 -8 4 -5 -4 -6
-18 -2 -13 4 -28 7 -34 6 -5 0 -38 -2 -72 -3 -45 -1 -63 -6 -63 -15 0 -10 -4
-9 -16 2 -17 18 -24 19 -48 10 -9 -3 -13 -11 -9 -17 3 -6 1 -7 -6 -3 -6 4 -9
11 -6 16 3 5 0 12 -6 16 -7 4 -9 3 -5 -4 4 -7 -7 -11 -31 -11 -21 0 -48 -2
-61 -5 -12 -3 -38 2 -58 10 -20 8 -33 11 -30 5 9 -14 -123 24 -229 66 -358
142 -595 392 -674 714 -43 173 -43 182 -48 1456 -4 1151 -3 1232 13 1235 9 2
93 2 185 0 l168 -3 3 -1257 3 -1257 22 -78 c43 -151 140 -296 266 -397 77 -62
257 -153 356 -180 384 -104 830 18 1057 288 100 120 144 232 164 422 6 58 10
561 10 1278 0 825 3 1182 11 1182 5 0 7 6 3 13 -6 10 -4 10 7 0 9 -9 59 -13
176 -13z m868 10 c-4 -7 354 -10 1087 -10 l1093 0 3 -135 3 -135 -466 0 -465
0 0 -1580 c0 -1498 -1 -1580 -17 -1580 -10 -1 -82 -1 -160 0 -111 1 -143 -2
-143 -12 0 -10 -2 -10 -9 1 -5 7 -14 10 -20 7 -8 -5 -11 418 -11 1578 l0 1586
-470 0 -470 0 0 133 c0 129 1 134 23 145 29 14 29 14 22 2z m1255 -3454 c0 -3
-4 -8 -10 -11 -5 -3 -10 -1 -10 4 0 6 5 11 10 11 6 0 10 -2 10 -4z m-9225 -56
c3 -6 -1 -7 -9 -4 -18 7 -21 14 -7 14 6 0 13 -4 16 -10z"/>
<path d="M16250 7810 c0 -5 5 -10 11 -10 5 0 7 5 4 10 -3 6 -8 10 -11 10 -2 0
-4 -4 -4 -10z"/>
</g>
</svg>
